<svg version="1.1" id="Layer_1" xmlns="http://www.w3.org/2000/svg" xmlns:xlink="http://www.w3.org/1999/xlink" x="0px" y="0px"
	                             viewBox="-84.1 109.2 94.2 89" style="enable-background:new -84.1 109.2 94.2 89;" xml:space="preserve">
                            <style type="text/css">
	                            .st0{clip-path:url(#SVGID_2_);fill:url(#SVGID_3_);}
	                            .st1{clip-path:url(#SVGID_5_);fill:#FFFFFF;}
	                            .st2{clip-path:url(#SVGID_7_);fill:#FFFFFF;}
	                            .st3{clip-path:url(#SVGID_9_);fill:#FFFFFF;}
                            </style>
                            <g>
	                            <g>
		                            <defs>
			                            <path id="SVGID_1_" d="M-62.5,127.2c-0.1,0.1-0.2,0.2-0.3,0.3c-7.7,7.8-9.3,19.8-3.9,29.4c2.7,4.9,6.4,9.8,10.9,14.3
				                            s9.4,8.2,14.3,10.9c9.6,5.3,21.6,3.8,29.4-3.9c0.1-0.1,0.2-0.2,0.3-0.3c7.7-7.8,9.3-19.8,3.9-29.4c-2.7-4.9-6.4-9.8-10.9-14.3
				                            s-9.3-8.2-14.2-10.9c-3.8-2.1-8-3.1-12.1-3.1C-51.5,120.1-57.8,122.6-62.5,127.2"/>
		                            </defs>
		                            <clipPath id="SVGID_2_">
			                            <use xlink:href="#SVGID_1_"  style="overflow:visible;"/>
		                            </clipPath>
		
			                        <linearGradient id="SVGID_3_" gradientUnits="userSpaceOnUse" x1="-191.4746" y1="-287.2715" x2="-190.4746" y2="-287.2715" gradientTransform="matrix(50.7488 50.7488 -50.7488 50.7488 -4924.728 24423.6836)">
			                            <stop  offset="0" style="stop-color:#15C3F4"/>
			                            <stop  offset="0.189" style="stop-color:#15C3F4"/>
			                            <stop  offset="1" style="stop-color:#0374BB"/>
		                            </linearGradient>
		                            <polygon class="st0" points="-37.2,85.4 31.2,153.8 -37.2,222.2 -105.7,153.8 		"/>
	                            </g>
                            </g>
                            <g>
	                            <g>
		                            <defs>
			                            <rect id="SVGID_4_" x="-70.2" y="119.8" width="66" height="65.6"/>
		                            </defs>
		                            <clipPath id="SVGID_5_">
			                            <use xlink:href="#SVGID_4_"  style="overflow:visible;"/>
		                            </clipPath>
		                            <path class="st1" d="M-52.3,141.7c0-0.7,0.6-1.2,1.2-1.1h4.2c0.6,0,1.2,0.5,1.2,1.2v21.8c0,0.6-0.6,1.2-1.2,1.2h-4.2
			                            c-0.6,0-1.2-0.5-1.1-1.2v-21.9H-52.3z"/>
	                            </g>
	                            <g>
		                            <defs>
			                            <rect id="SVGID_6_" x="-70.2" y="119.8" width="66" height="65.6"/>
		                            </defs>
		                            <clipPath id="SVGID_7_">
			                            <use xlink:href="#SVGID_6_"  style="overflow:visible;"/>
		                            </clipPath>
		                            <path class="st2" d="M-40.9,163.2c-0.3-0.2-0.6-0.8-0.3-1.3l1.6-3.1c0.3-0.6,0.8-0.8,1.4-0.4c1.1,0.7,2.8,1.6,5.3,1.6
			                            c1.8,0,2.7-0.7,2.7-1.7c0-1.1-1.4-2.1-4.6-3.4c-4.7-1.8-6.8-4-6.7-7.7c0-3.7,2.8-7.1,8.7-7.1c3.6,0,5.9,1,7.2,1.8
			                            c0.5,0.4,0.8,1.1,0.5,1.7l-1.4,2.8c-0.4,0.6-1,0.7-1.5,0.5c-1.2-0.5-2.8-1.2-4.8-1.2c-1.6,0-2.3,0.8-2.3,1.6
			                            c0,1.1,1.2,1.7,3.5,2.6c4.7,1.9,8,3.6,8,8.4c0,3.8-3.3,7.2-9.3,7.2C-37.1,165.4-39.6,164.1-40.9,163.2"/>
	                            </g>
	                            <g>
		                            <defs>
			                            <rect id="SVGID_8_" x="-70.2" y="119.8" width="66" height="65.6"/>
		                            </defs>
		                            <clipPath id="SVGID_9_">
			                            <use xlink:href="#SVGID_8_"  style="overflow:visible;"/>
		                            </clipPath>
		                            <path class="st3" d="M-17.6,158c1.9,0,3.4,1.6,3.4,3.4c0,1.8-1.6,3.4-3.4,3.4c-1.9,0-3.4-1.6-3.4-3.4C-21,159.5-19.5,158-17.6,158
			                            "/>
	                            </g>
                            </g>
                            </svg>