<?xml version="1.0" encoding="UTF-8"?>
<svg version="1.1" xmlns="http://www.w3.org/2000/svg" width="96" height="96">
<path d="M0 0 C4.43340535 3.91073019 7.18475131 8.35255964 9 14 C9 16.31 9 18.62 9 21 C2.73 21 -3.54 21 -10 21 C-10.99 18.69 -11.98 16.38 -13 14 C-17.69909142 11.19861857 -21.58111897 10.4194056 -27 11 C-31.06278714 12.21141929 -33.57508695 13.36263042 -36 17 C-36.48243075 20.03189266 -36.48243075 20.03189266 -35 23 C-29.98456721 26.45807346 -23.48722043 27.38331969 -17.64990234 28.75097656 C2.33883287 33.45810824 2.33883287 33.45810824 8.0625 42.1875 C11.71080051 48.77002084 12.04827722 56.02274676 10.50390625 63.35546875 C7.87572524 71.03213307 3.3621022 75.17418487 -3.62109375 78.921875 C-14.23671634 83.73289608 -27.82894805 84.55964504 -39 81 C-46.94827167 77.97350455 -52.89516814 74.62763533 -57 67 C-58.99768384 62.45980945 -59 60.2093697 -59 55 C-52.73 55 -46.46 55 -40 55 C-38.02 58.465 -38.02 58.465 -36 62 C-30.34516065 65.57755143 -24.57289423 65.73252134 -18 65 C-14.56799055 63.79578616 -12.76089474 62.9924714 -10.5625 60.125 C-9.82072777 57.32274934 -10.02079077 55.72779714 -11 53 C-13.91388333 50.35844221 -16.48214888 49.41296267 -20.2890625 48.5703125 C-21.31386719 48.33183594 -22.33867188 48.09335937 -23.39453125 47.84765625 C-25.52419358 47.37125053 -27.65439238 46.8972358 -29.78515625 46.42578125 C-39.85867851 44.07403511 -49.17132605 41.0487106 -55 32 C-58.16654814 25.81083773 -58.1847089 17.77625962 -56.125 11.2109375 C-52.56082224 3.44947146 -47.80450694 -0.98462982 -40 -4.3125 C-26.65452585 -9.17089769 -11.93334977 -7.81129458 0 0 Z M-48 7 C-51.70155227 12.11444762 -52.71553317 17.04718903 -52.4375 23.3203125 C-51.59379462 28.48800796 -49.41920746 32.23745292 -45.16064453 35.34008789 C-38.944671 38.8938359 -32.77741646 40.55063502 -25.8125 42.0625 C-11.23261252 45.24599837 -11.23261252 45.24599837 -6.0625 51.25 C-4.57496449 55.10009191 -4.84453274 58.07141132 -6 62 C-8.18653929 65.78439492 -10.68744181 67.95086162 -14.82421875 69.4921875 C-22.47649255 71.278176 -29.82307114 70.43225668 -36.96875 67.2890625 C-39 66 -39 66 -41 62.75 C-41.66 61.8425 -42.32 60.935 -43 60 C-46.38460873 59.47182857 -49.60242231 59.64986795 -53 60 C-52.17400464 65.86354729 -49.42370639 69.19003306 -45 73 C-34.83619194 78.53239941 -23.29502696 79.55776634 -12.125 76.75 C-4.61318675 74.42209231 0.46844427 70.36189094 5 64 C6.86795333 58.39614002 6.73535867 52.29258879 4.9375 46.6875 C-2.20873632 36.77497866 -12.84867388 34.70964371 -24.19921875 31.9765625 C-25.2046875 31.7283374 -25.2046875 31.7283374 -26.23046875 31.47509766 C-28.07994351 31.02611089 -29.93633458 30.60589643 -31.79296875 30.1875 C-36.08513378 28.59819651 -38.93906891 26.12186218 -41 22 C-41.04170583 17.67927585 -40.79944392 14.07511424 -38.1875 10.5625 C-32.75779931 6.68414236 -27.61822257 5.92845165 -21 6 C-15.63543778 6.97537495 -11.43397136 8.60451666 -8 13 C-7.34 13.99 -6.68 14.98 -6 16 C-3.56306689 16.36416047 -3.56306689 16.36416047 -0.875 16.1875 C0.03507812 16.16042969 0.94515625 16.13335938 1.8828125 16.10546875 C2.58148438 16.07066406 3.28015625 16.03585938 4 16 C1.49353532 9.27212112 -2.00248492 5.06703102 -8 1 C-20.83982826 -3.98415059 -38.20520381 -4.05053929 -48 7 Z " fill="#000000" transform="translate(72,10)"/>
</svg>
